<?xml version="1.0" encoding="utf-8"?>
<!-- Generator: Adobe Illustrator 16.0.0, SVG Export Plug-In . SVG Version: 6.00 Build 0)  -->
<!DOCTYPE svg PUBLIC "-//W3C//DTD SVG 1.1//EN" "http://www.w3.org/Graphics/SVG/1.1/DTD/svg11.dtd">
<svg version="1.1" id="Calque_1" xmlns="http://www.w3.org/2000/svg" xmlns:xlink="http://www.w3.org/1999/xlink" x="0px" y="0px"
	 width="66.686px" height="61.062px" viewBox="0 0 66.686 61.062" enable-background="new 0 0 66.686 61.062" xml:space="preserve">
<g>
	<path d="M20.403,30.258c-0.164,0-0.326-0.054-0.459-0.156c-0.187-0.143-0.296-0.365-0.296-0.6v-3.346
		c0-0.342,0.229-0.641,0.559-0.729l3.63-0.979v-2.751c0-0.342,0.23-0.642,0.562-0.73l4.791-1.274v-2.395
		c0-0.345,0.233-0.646,0.566-0.731l5.894-1.521c0.062-0.016,0.126-0.024,0.189-0.024c0.166,0,0.329,0.055,0.462,0.158
		c0.185,0.143,0.293,0.364,0.293,0.597v9.577c0,0.342-0.229,0.641-0.559,0.73L20.6,30.232C20.535,30.25,20.469,30.258,20.403,30.258
		z"/>
	<path d="M30.663,45.634c-0.114,0-0.228-0.026-0.333-0.077l-20.051-9.828c-0.283-0.139-0.45-0.438-0.419-0.752
		s0.253-0.575,0.557-0.657l25.762-6.866c0.064-0.017,0.129-0.025,0.194-0.025c0.105,0,0.209,0.021,0.307,0.064l21.072,9.349
		c0.292,0.13,0.471,0.429,0.447,0.748c-0.024,0.318-0.246,0.587-0.554,0.672l-26.783,7.345
		C30.797,45.625,30.729,45.634,30.663,45.634z"/>
</g>
</svg>
